<svg width="107" height="55" viewBox="0 0 107 55" fill="none" xmlns="http://www.w3.org/2000/svg">
<path d="M12.3824 36.0759L12.7204 39.9509L13.195 40.6628L13.6696 39.9509L14.0076 36.0759C14.0383 35.3879 14.605 34.8459 15.2938 34.8459L16.0159 33.9326H10.374L11.0961 34.8459C11.7849 34.8459 12.3517 35.3879 12.3824 36.0759Z" fill="#AAADAD"/>
<path d="M13.1949 32.7898C14.121 32.7898 14.8721 32.0387 14.8721 31.1126C14.8721 30.6662 14.698 30.2608 14.4138 29.9603C14.2985 31.3533 12.9499 30.9394 13.4928 29.8511C13.8231 29.1887 13.6678 28.5375 13.0242 28.2148C13.2649 29.4192 11.5168 29.7487 11.5168 31.1118C11.5177 32.0387 12.268 32.7898 13.1949 32.7898Z" fill="#AAADAD"/>
<path d="M25.7396 12.9431C25.8523 12.7169 25.9522 12.6725 26.2791 12.7092C26.2791 12.7434 26.2791 12.7792 26.2791 12.8151C26.2791 14.0621 26.2799 15.3091 26.2782 16.5562C26.2782 16.761 26.3226 16.9496 26.4549 17.1118C26.6094 17.3004 26.8091 17.3943 27.0515 17.4123C27.34 17.4336 27.6302 17.449 27.9145 17.4976C28.4069 17.5821 28.8644 17.7614 29.2605 18.0755C29.3006 18.107 29.339 18.1412 29.3774 18.1745C29.386 18.1813 29.3919 18.1907 29.4056 18.2052C29.2306 18.1753 29.0659 18.1412 28.8994 18.1181C28.4078 18.0499 27.9136 18.0328 27.4211 18.0883C26.996 18.1361 26.5735 18.2095 26.151 18.2769C25.9479 18.3093 25.8386 18.2513 25.7388 18.0405C25.7396 16.3419 25.7396 14.6425 25.7396 12.9431Z" fill="#AAADAD"/>
<path d="M29.859 17.9448C29.7292 17.8364 29.6123 17.7288 29.4851 17.6341C29.0148 17.285 28.4814 17.0861 27.9061 17.0025C27.6432 16.9641 27.376 16.9487 27.1097 16.9316C26.8861 16.9171 26.7632 16.7993 26.7632 16.5765C26.7632 15.0427 26.7632 13.5089 26.7632 11.9751C26.7632 11.7353 26.898 11.6141 27.1396 11.6209C27.5758 11.6337 28.0042 11.6883 28.4191 11.8309C28.9867 12.0255 29.4578 12.349 29.7864 12.8594C29.8283 12.9251 29.859 13.0113 29.8598 13.089C29.8641 14.6936 29.8632 16.2983 29.8632 17.903C29.8624 17.9149 29.8607 17.926 29.859 17.9448Z" fill="#AAADAD"/>
<path d="M30.3445 17.9429C30.3445 17.902 30.3445 17.8678 30.3445 17.8345C30.3445 16.3033 30.3488 14.7729 30.3394 13.2416C30.3377 13.0129 30.4153 12.8388 30.5528 12.6706C30.983 12.1414 31.5531 11.8495 32.2086 11.7206C32.5023 11.6634 32.8044 11.6464 33.104 11.6233C33.3114 11.6071 33.4437 11.7505 33.4446 11.969C33.4454 12.8183 33.4446 13.6676 33.4446 14.5168C33.4446 15.1954 33.4446 15.8748 33.4446 16.5534C33.4446 16.8086 33.3285 16.9264 33.0707 16.9315C32.4485 16.9434 31.8459 17.045 31.2766 17.3071C30.965 17.4505 30.6817 17.6374 30.4341 17.8764C30.4136 17.896 30.3932 17.9156 30.3718 17.9353C30.3684 17.9378 30.3616 17.9378 30.3445 17.9429Z" fill="#AAADAD"/>
<path d="M33.9277 12.7049C34.0267 12.7049 34.112 12.6989 34.1965 12.7066C34.3374 12.7185 34.45 12.8389 34.4654 12.9831C34.468 13.0087 34.468 13.0343 34.468 13.0599C34.468 14.6825 34.4688 16.3042 34.4662 17.9268C34.4662 18.0002 34.4483 18.0813 34.4133 18.1453C34.3519 18.2563 34.2435 18.3049 34.1163 18.2836C33.8901 18.246 33.6656 18.1948 33.4386 18.1607C32.562 18.0284 31.6863 18.0105 30.7883 18.2153C30.8464 18.1633 30.8839 18.1248 30.9258 18.0916C31.3508 17.7501 31.845 17.5666 32.3759 17.4821C32.6192 17.4429 32.8667 17.4284 33.1125 17.4156C33.6084 17.3899 33.9268 17.0647 33.9277 16.5654C33.9285 15.4038 33.9277 14.2412 33.9277 13.0796C33.9277 12.9566 33.9277 12.8354 33.9277 12.7049Z" fill="#AAADAD"/>
<path d="M41.8799 1.3742V34.1835C41.8799 37.0002 41.0537 39.7571 39.49 42.1565C37.9195 44.5669 35.673 46.5121 32.9937 47.783L21.6271 53.1723L10.2604 47.783C7.58116 46.5129 5.33549 44.5669 3.76412 42.1565C2.20043 39.7571 1.3742 37.0002 1.3742 34.1835V1.3742H14.418C17.635 1.3742 20.2529 3.82472 20.2529 6.83687C20.2529 7.59567 20.8683 8.21108 21.6271 8.21108C22.3859 8.21108 23.0013 7.59567 23.0013 6.83687C23.0013 3.82472 25.6182 1.3742 28.8361 1.3742H41.8799ZM43.2541 0H28.8361C24.8543 0 21.6271 3.0608 21.6271 6.83687C21.6271 3.0608 18.3998 0 14.418 0H0V34.1835C0 40.4682 3.74449 46.2142 9.67234 49.0249L21.6279 54.6941L33.5835 49.0249C39.5113 46.2142 43.255 40.4682 43.255 34.1835V0H43.2541Z" fill="#AAADAD"/>
<path d="M12.0426 45.4775L21.6271 50.2693L31.2115 45.4775C33.5767 44.2945 35.562 42.4807 36.9516 40.2316C38.342 37.9825 39.0769 35.3954 39.0769 32.7512V4.05762H27.2485C24.7655 4.05762 22.6189 5.52315 21.6271 7.63396C20.6353 5.52315 18.4886 4.05762 16.0056 4.05762H4.17725V32.7503C4.17725 35.3946 4.91215 37.9817 6.30257 40.2307C7.69213 42.4807 9.67747 44.2945 12.0426 45.4775ZM27.2485 34.9755C25.2307 34.9755 23.4349 35.9443 22.3005 37.4405C22.7392 35.1078 24.7903 33.3358 27.2485 33.3358H37.8913C37.8666 33.8872 37.8085 34.4352 37.7146 34.9755H27.2485ZM37.4552 36.1465C37.3049 36.7048 37.1171 37.2519 36.8944 37.7862H27.2493C25.2316 37.7862 23.4357 38.755 22.3014 40.2512C22.7401 37.9185 24.7911 36.1465 27.2493 36.1465H37.4552ZM27.2485 32.1648C25.2307 32.1648 23.4349 33.1335 22.3005 34.6298C22.7392 32.2971 24.7903 30.5251 27.2485 30.5251H37.9058V32.1648H27.2485ZM27.2485 29.3541C25.2307 29.3541 23.4349 30.3228 22.3005 31.8191C22.7392 29.4864 24.7903 27.7144 27.2485 27.7144H37.9058V29.3541H27.2485ZM27.2485 26.5433C25.2307 26.5433 23.4349 27.5121 22.3005 29.0084C22.7392 26.6756 24.7903 24.9037 27.2485 24.9037H37.9058V26.5433H27.2485ZM16.0056 10.8501C18.4638 10.8501 20.5158 12.6212 20.9536 14.9548C19.8193 13.4585 18.0234 12.4898 16.0056 12.4898H5.34831V10.8501H16.0056ZM5.34831 9.67905V8.03939H16.0056C18.4638 8.03939 20.5158 9.81049 20.9536 12.1441C19.8193 10.6478 18.0234 9.67905 16.0056 9.67905H5.34831ZM16.0056 13.6608C18.4638 13.6608 20.5158 15.4319 20.9536 17.7655C19.8193 16.2692 18.0234 15.3005 16.0056 15.3005H5.34831V13.6608H16.0056ZM16.0056 16.4715C18.4638 16.4715 20.5158 18.2426 20.9536 20.5762C19.8193 19.08 18.0234 18.1112 16.0056 18.1112H5.34831V16.4715H16.0056ZM16.0056 19.2823C18.4638 19.2823 20.5158 21.0534 20.9536 23.3869C19.8193 21.8907 18.0234 20.9219 16.0056 20.9219H5.34831V19.2823H16.0056ZM16.0056 22.093C18.4638 22.093 20.5158 23.8641 20.9536 26.1977C19.8193 24.7014 18.0234 23.7326 16.0056 23.7326H5.34831V22.093H16.0056ZM22.3125 48.6177C22.7768 46.3165 24.8133 44.5787 27.2485 44.5787H30.3895L22.3125 48.6177ZM32.3902 43.4076H27.2485C25.2307 43.4076 23.4349 44.3764 22.3005 45.8727C22.7392 43.5399 24.7903 41.768 27.2485 41.768H34.2919C33.7132 42.3748 33.0756 42.9228 32.3902 43.4076ZM35.2829 40.5969H27.2485C25.2307 40.5969 23.4349 41.5657 22.3005 43.0619C22.7392 40.7292 24.7903 38.9573 27.2485 38.9573H36.3345C36.2141 39.1792 36.0895 39.3994 35.9555 39.6153C35.7464 39.9542 35.521 40.2803 35.2829 40.5969ZM22.2126 10.2646C22.2126 7.488 24.4719 5.22868 27.2485 5.22868H37.9058V23.7326H27.2485C25.1769 23.7326 23.341 24.7535 22.2126 26.318V10.2646ZM16.0056 5.22868C18.4638 5.22868 20.5158 6.99978 20.9536 9.33336C19.8193 7.8371 18.0234 6.86833 16.0056 6.86833H5.34831V5.22868H16.0056ZM5.34831 24.9037H16.0056C18.7822 24.9037 21.0415 27.163 21.0415 29.9396V48.6672L12.5667 44.4293C10.3962 43.3436 8.5747 41.6792 7.29865 39.6145C6.0226 37.5498 5.34831 35.1761 5.34831 32.7494V24.9037Z" fill="#AAADAD"/>
<path d="M50.5537 31.9796V9.0415H55.6545V31.9796H50.5537Z" fill="#AAADAD"/>
<path d="M63.6231 31.9796V13.2759H58.2551V9.0415H74.0918V13.2759H68.7238V31.9796H63.6231Z" fill="#AAADAD"/>
<path d="M76.6584 31.9796V9.0415H90.3612V13.1086H81.7601V18.3767H89.0954V22.4105H81.7601V27.9116H90.3621V31.9788H76.6584V31.9796Z" fill="#AAADAD"/>
<path d="M101.831 32.247C100.319 32.247 99.0639 32.13 98.0636 31.897C97.0632 31.664 96.2515 31.2748 95.6301 30.7302C95.0079 30.1856 94.541 29.4687 94.2295 28.5801C93.9179 27.6916 93.7071 26.5794 93.5961 25.2462C93.4843 23.913 93.4297 22.3348 93.4297 20.5116C93.4297 18.6893 93.4852 17.1111 93.5961 15.777C93.7071 14.4438 93.9239 13.3265 94.2465 12.426C94.5683 11.5255 95.0412 10.8094 95.6634 10.2759C96.2856 9.74245 97.0974 9.35921 98.0969 9.12534C99.0972 8.89233 100.342 8.77539 101.831 8.77539C102.409 8.77539 102.998 8.79758 103.598 8.84197C104.198 8.88635 104.776 8.95378 105.331 9.0417C105.887 9.13046 106.343 9.23118 106.699 9.34214V13.143C106.143 13.0764 105.637 13.0209 105.182 12.9765C104.726 12.9321 104.315 12.8989 103.949 12.8767C103.582 12.8545 103.254 12.8434 102.965 12.8434C102.12 12.8434 101.426 12.8886 100.882 12.9765C100.337 13.0653 99.9038 13.2488 99.582 13.5271C99.2594 13.8053 99.0264 14.2218 98.8821 14.7775C98.737 15.3332 98.6431 16.0774 98.5987 17.0112C98.5535 17.945 98.5322 19.1118 98.5322 20.5116C98.5322 21.9123 98.5544 23.0791 98.5987 24.012C98.6431 24.9458 98.737 25.6909 98.8821 26.2457C99.0264 26.8014 99.2594 27.2179 99.582 27.4961C99.9038 27.7744 100.337 27.9579 100.882 28.0467C101.427 28.1354 102.12 28.1798 102.965 28.1798C103.61 28.1798 104.282 28.1525 104.982 28.0962C105.682 28.0407 106.288 27.969 106.8 27.8794V31.7135C106.399 31.8253 105.916 31.9192 105.349 31.9969C104.783 32.0745 104.194 32.1351 103.583 32.1804C102.97 32.2239 102.386 32.247 101.831 32.247Z" fill="#AAADAD"/>
<path d="M51.3236 40.341H50.6348V36.4053H51.3236V40.341Z" fill="#AAADAD"/>
<path d="M52.0986 40.3409V37.6813H52.7072L52.761 38.0261C52.9283 37.7573 53.2509 37.6011 53.612 37.6011C54.2794 37.6011 54.6243 38.0159 54.6243 38.7047V40.3418H53.967V38.8609C53.967 38.4136 53.746 38.1986 53.4071 38.1986C53.0034 38.1986 52.7559 38.4785 52.7559 38.9096V40.3418H52.0986V40.3409Z" fill="#AAADAD"/>
<path d="M55.6569 39.5336C55.662 39.7649 55.8344 39.9109 56.1357 39.9109C56.443 39.9109 56.6094 39.7871 56.6094 39.5934C56.6094 39.4585 56.5395 39.3621 56.3022 39.3083L55.8233 39.1956C55.3445 39.0881 55.1123 38.8619 55.1123 38.4368C55.1123 37.9144 55.5536 37.6021 56.1673 37.6021C56.7648 37.6021 57.1685 37.9469 57.1745 38.4633H56.5497C56.5446 38.2371 56.3935 38.092 56.1409 38.092C55.8822 38.092 55.732 38.2106 55.732 38.4095C55.732 38.5606 55.8507 38.657 56.0768 38.7108L56.5557 38.8235C57.0029 38.9259 57.2283 39.1307 57.2283 39.5396C57.2283 40.0782 56.7708 40.4119 56.1135 40.4119C55.4512 40.4119 55.0312 40.0568 55.0312 39.5345H55.6569V39.5336Z" fill="#AAADAD"/>
<path d="M57.9768 40.341V38.2302H57.4656V37.6813H57.9768V36.8525H58.6341V37.6813H59.1505V38.2302H58.6332V40.341H57.9768Z" fill="#AAADAD"/>
<path d="M59.4844 36.7504C59.4844 36.5293 59.6619 36.3569 59.8881 36.3569C60.1032 36.3569 60.2816 36.5293 60.2816 36.7504C60.2816 36.9715 60.1041 37.149 59.8881 37.149C59.6619 37.149 59.4844 36.9706 59.4844 36.7504ZM59.5595 37.6816H60.2167V40.3413H59.5595V37.6816Z" fill="#AAADAD"/>
<path d="M61.1426 40.341V38.2302H60.6313V37.6813H61.1426V36.8525H61.7998V37.6813H62.3171V38.2302H61.7998V40.341H61.1426Z" fill="#AAADAD"/>
<path d="M65.1851 37.6816V40.3413H64.5765L64.5279 39.9862C64.3665 40.2389 64.0217 40.4113 63.6666 40.4113C63.0529 40.4113 62.6919 39.9964 62.6919 39.3452V37.6816H63.3491V39.1139C63.3491 39.62 63.548 39.8249 63.9142 39.8249C64.329 39.8249 64.5279 39.5825 64.5279 39.0763V37.6816H65.1851Z" fill="#AAADAD"/>
<path d="M66.1111 40.341V38.2302H65.5999V37.6813H66.1111V36.8525H66.7684V37.6813H67.2856V38.2302H66.7684V40.341H66.1111Z" fill="#AAADAD"/>
<path d="M68.9314 37.6064C69.7551 37.6064 70.3525 38.1775 70.3525 39.0063C70.3525 39.835 69.7551 40.4061 68.9314 40.4061C68.1077 40.4061 67.5103 39.835 67.5103 39.0063C67.5103 38.1766 68.1077 37.6064 68.9314 37.6064ZM68.9314 39.8188C69.3838 39.8188 69.6962 39.4902 69.6962 39.0063C69.6962 38.5214 69.3838 38.1928 68.9314 38.1928C68.479 38.1928 68.1666 38.5214 68.1666 39.0063C68.1675 39.4902 68.4799 39.8188 68.9314 39.8188Z" fill="#AAADAD"/>
<path d="M72.1721 39.0224C72.1721 38.1936 72.6569 37.6013 73.4593 37.6013C73.8306 37.6013 74.1592 37.7575 74.3265 38.0212V36.3354H74.9777V40.3411H74.3751L74.3324 39.9263C74.1711 40.2336 73.8263 40.4111 73.4226 40.4111C72.651 40.4111 72.1721 39.8461 72.1721 39.0224ZM74.3196 39.0002C74.3196 38.5214 74.0235 38.1876 73.566 38.1876C73.1085 38.1876 72.8285 38.5265 72.8285 39.0002C72.8285 39.4739 73.1085 39.8077 73.566 39.8077C74.0243 39.8085 74.3196 39.4799 74.3196 39.0002Z" fill="#AAADAD"/>
<path d="M75.5037 39.0115C75.5037 38.1767 76.0474 37.6006 76.8284 37.6006C77.6247 37.6006 78.1309 38.1332 78.1309 38.9628V39.1617L76.1285 39.1668C76.1771 39.6354 76.4246 39.8719 76.8608 39.8719C77.2218 39.8719 77.4583 39.7319 77.5334 39.4792H78.142C78.0293 40.0605 77.5445 40.4104 76.8497 40.4104C76.0585 40.4113 75.5037 39.8352 75.5037 39.0115ZM76.1447 38.7477H77.4796C77.4796 38.3816 77.227 38.1392 76.8335 38.1392C76.446 38.1392 76.2095 38.3491 76.1447 38.7477Z" fill="#AAADAD"/>
<path d="M79.8643 36.4053H82.8576V37.0403H81.7053V40.341H81.0165V37.0403H79.8643V36.4053Z" fill="#AAADAD"/>
<path d="M82.6792 39.0115C82.6792 38.1767 83.2229 37.6006 84.0039 37.6006C84.8011 37.6006 85.3064 38.1332 85.3064 38.9628V39.1617L83.304 39.1668C83.3526 39.6354 83.6002 39.8719 84.0363 39.8719C84.3974 39.8719 84.6338 39.7319 84.7089 39.4792H85.3175C85.2048 40.0605 84.72 40.4104 84.0252 40.4104C83.234 40.4113 82.6792 39.8352 82.6792 39.0115ZM83.3202 38.7477H84.6552C84.6552 38.3816 84.4025 38.1392 84.009 38.1392C83.6215 38.1392 83.3842 38.3491 83.3202 38.7477Z" fill="#AAADAD"/>
<path d="M87.0076 37.6006C87.7348 37.6006 88.2298 38.0043 88.2998 38.6453H87.6426C87.5675 38.344 87.3464 38.1878 87.034 38.1878C86.6141 38.1878 86.3341 38.5053 86.3341 39.0064C86.3341 39.5074 86.5927 39.8189 87.0127 39.8189C87.3413 39.8189 87.5726 39.6576 87.6426 39.3666H88.3049C88.2238 39.9854 87.7075 40.4113 87.0127 40.4113C86.2052 40.4113 85.6777 39.8514 85.6777 39.0064C85.6777 38.1827 86.2214 37.6006 87.0076 37.6006Z" fill="#AAADAD"/>
<path d="M88.7942 40.3409V37.6813H89.4028L89.4565 38.0261C89.6238 37.7573 89.9465 37.6011 90.3075 37.6011C90.975 37.6011 91.3198 38.0159 91.3198 38.7047V40.3418H90.6626V38.8609C90.6626 38.4136 90.4415 38.1986 90.1027 38.1986C89.6989 38.1986 89.4514 38.4785 89.4514 38.9096V40.3418H88.7942V40.3409Z" fill="#AAADAD"/>
<path d="M93.23 37.6064C94.0537 37.6064 94.6511 38.1775 94.6511 39.0063C94.6511 39.835 94.0537 40.4061 93.23 40.4061C92.4063 40.4061 91.8088 39.835 91.8088 39.0063C91.8088 38.1766 92.4063 37.6064 93.23 37.6064ZM93.23 39.8188C93.6824 39.8188 93.9948 39.4902 93.9948 39.0063C93.9948 38.5214 93.6824 38.1928 93.23 38.1928C92.7776 38.1928 92.4652 38.5214 92.4652 39.0063C92.4661 39.4902 92.7776 39.8188 93.23 39.8188Z" fill="#AAADAD"/>
<path d="M95.1836 40.3411V36.3354H95.8348V40.3411H95.1836Z" fill="#AAADAD"/>
<path d="M97.7895 37.6064C98.6132 37.6064 99.2107 38.1775 99.2107 39.0063C99.2107 39.835 98.6132 40.4061 97.7895 40.4061C96.9659 40.4061 96.3684 39.835 96.3684 39.0063C96.3684 38.1766 96.9659 37.6064 97.7895 37.6064ZM97.7895 39.8188C98.2419 39.8188 98.5543 39.4902 98.5543 39.0063C98.5543 38.5214 98.2419 38.1928 97.7895 38.1928C97.3372 38.1928 97.0248 38.5214 97.0248 39.0063C97.0248 39.4902 97.3372 39.8188 97.7895 39.8188Z" fill="#AAADAD"/>
<path d="M100.847 37.5952C101.245 37.5952 101.558 37.7625 101.714 38.0476L101.752 37.6814H102.36V40.2062C102.36 41.0947 101.828 41.6487 100.966 41.6487C100.201 41.6487 99.6784 41.2125 99.5981 40.5015H100.255C100.298 40.8464 100.563 41.0504 100.966 41.0504C101.419 41.0504 101.709 40.7653 101.709 40.3231V39.8819C101.542 40.1294 101.214 40.2856 100.831 40.2856C100.078 40.2856 99.5828 39.7205 99.5828 38.9506C99.5819 38.1765 100.088 37.5952 100.847 37.5952ZM100.96 39.7163C101.413 39.7163 101.693 39.3988 101.693 38.9353C101.693 38.4829 101.418 38.1705 100.96 38.1705C100.524 38.1705 100.244 38.4991 100.244 38.9353C100.244 39.3825 100.529 39.7163 100.96 39.7163Z" fill="#AAADAD"/>
<path d="M102.962 36.7504C102.962 36.5293 103.139 36.3569 103.366 36.3569C103.581 36.3569 103.758 36.5293 103.758 36.7504C103.758 36.9715 103.581 37.149 103.366 37.149C103.14 37.149 102.962 36.9706 102.962 36.7504ZM103.038 37.6816H103.695V40.3413H103.038V37.6816Z" fill="#AAADAD"/>
<path d="M104.254 39.5823C104.254 39.0923 104.609 38.7851 105.239 38.7373L106.037 38.6784V38.6195C106.037 38.2584 105.821 38.1133 105.488 38.1133C105.1 38.1133 104.885 38.2746 104.885 38.5546H104.325C104.325 37.9785 104.799 37.6021 105.52 37.6021C106.236 37.6021 106.678 37.9896 106.678 38.727V40.3419H106.101L106.053 39.9493C105.94 40.2241 105.579 40.4119 105.164 40.4119C104.599 40.4111 104.254 40.0824 104.254 39.5823ZM106.042 39.2639V39.1239L105.487 39.1674C105.078 39.205 104.922 39.3399 104.922 39.555C104.922 39.7974 105.083 39.916 105.379 39.916C105.783 39.916 106.042 39.6736 106.042 39.2639Z" fill="#AAADAD"/>
<path d="M50.6348 46.8009V42.8652H53.0793V43.5003H51.3236V44.5126H52.8958V45.1211H51.3236V46.1659H53.0785V46.8009H50.6348Z" fill="#AAADAD"/>
<path d="M53.7297 46.8009V44.1413H54.3383L54.3921 44.4861C54.5594 44.2172 54.882 44.061 55.2431 44.061C55.9105 44.061 56.2554 44.4759 56.2554 45.1647V46.8018H55.5981V45.3209C55.5981 44.8736 55.3771 44.6585 55.0382 44.6585C54.6345 44.6585 54.387 44.9385 54.387 45.3695V46.8018H53.7297V46.8009Z" fill="#AAADAD"/>
<path d="M58.0153 44.0547C58.4139 44.0547 58.7263 44.222 58.8825 44.5071L58.9201 44.1409H59.5287V46.6657C59.5287 47.5542 58.996 48.1082 58.134 48.1082C57.3692 48.1082 56.8468 47.672 56.7666 46.961H57.4238C57.4673 47.3058 57.7311 47.5098 58.1348 47.5098C58.5872 47.5098 58.8774 47.2247 58.8774 46.7826V46.3413C58.7101 46.5889 58.3823 46.745 58 46.745C57.2463 46.745 56.7512 46.18 56.7512 45.4101C56.7495 44.636 57.2557 44.0547 58.0153 44.0547ZM58.128 46.1757C58.5804 46.1757 58.8603 45.8582 58.8603 45.3948C58.8603 44.9424 58.5855 44.63 58.128 44.63C57.6918 44.63 57.4119 44.9586 57.4119 45.3948C57.4119 45.842 57.697 46.1757 58.128 46.1757Z" fill="#AAADAD"/>
<path d="M60.0493 45.471C60.0493 44.6362 60.593 44.0601 61.374 44.0601C62.1704 44.0601 62.6765 44.5927 62.6765 45.4223V45.6212L60.6741 45.6263C60.7228 46.0949 60.9703 46.3313 61.4064 46.3313C61.7675 46.3313 62.0039 46.1914 62.079 45.9387H62.6876C62.5749 46.52 62.0901 46.8699 61.3953 46.8699C60.6041 46.8708 60.0493 46.2946 60.0493 45.471ZM60.6903 45.2072H62.0253C62.0253 44.8411 61.7726 44.5986 61.3791 44.5986C60.9916 44.5986 60.7552 44.8086 60.6903 45.2072Z" fill="#AAADAD"/>
<path d="M63.2041 46.8009V44.1413H63.8127L63.8665 44.4861C64.0337 44.2172 64.3564 44.061 64.7174 44.061C65.3849 44.061 65.7297 44.4759 65.7297 45.1647V46.8018H65.0725V45.3209C65.0725 44.8736 64.8514 44.6585 64.5126 44.6585C64.1089 44.6585 63.8613 44.9385 63.8613 45.3695V46.8018H63.2041V46.8009Z" fill="#AAADAD"/>
<path d="M66.375 46.8006V42.7949H67.0373V44.4858C67.2046 44.2272 67.5162 44.0607 67.8986 44.0607C68.5558 44.0607 68.8998 44.4755 68.8998 45.1644V46.8015H68.2426V45.3206C68.2426 44.8733 68.0215 44.6582 67.6877 44.6582C67.2729 44.6582 67.0305 44.9493 67.0305 45.347V46.8006H66.375Z" fill="#AAADAD"/>
<path d="M69.4263 46.0417C69.4263 45.5518 69.7813 45.2445 70.4113 45.1967L71.2085 45.1378V45.0789C71.2085 44.7179 70.9934 44.5728 70.6596 44.5728C70.2721 44.5728 70.057 44.7341 70.057 45.0141H69.4971C69.4971 44.4379 69.9708 44.0615 70.6921 44.0615C71.4082 44.0615 71.8495 44.449 71.8495 45.1865V46.8014H71.2733L71.2247 46.4088C71.112 46.6836 70.751 46.8714 70.3361 46.8714C69.7711 46.8705 69.4263 46.5419 69.4263 46.0417ZM71.2144 45.7242V45.5842L70.6596 45.6278C70.2508 45.6653 70.0946 45.8002 70.0946 46.0153C70.0946 46.2577 70.2559 46.3763 70.5521 46.3763C70.9558 46.3755 71.2144 46.1331 71.2144 45.7242Z" fill="#AAADAD"/>
<path d="M74.1634 44.7384H73.921C73.4473 44.7384 73.1511 44.9911 73.1511 45.5083V46.8006H72.4939V44.1461H73.1127L73.1503 44.5336C73.2629 44.2698 73.5164 44.0923 73.8715 44.0923C73.9628 44.0923 74.0542 44.1034 74.1626 44.1298V44.7384H74.1634Z" fill="#AAADAD"/>
<path d="M74.5349 43.2099C74.5349 42.9888 74.7124 42.8164 74.9386 42.8164C75.1537 42.8164 75.3321 42.9888 75.3321 43.2099C75.3321 43.431 75.1546 43.6085 74.9386 43.6085C74.7124 43.6085 74.5349 43.4301 74.5349 43.2099ZM74.6109 44.1411H75.2681V46.8007H74.6109V44.1411Z" fill="#AAADAD"/>
<path d="M75.8271 46.0417C75.8271 45.5518 76.1822 45.2445 76.8121 45.1967L77.6093 45.1378V45.0789C77.6093 44.7179 77.3943 44.5728 77.0605 44.5728C76.673 44.5728 76.4579 44.7341 76.4579 45.0141H75.898C75.898 44.4379 76.3717 44.0615 77.093 44.0615C77.8091 44.0615 78.2504 44.449 78.2504 45.1865V46.8014H77.6742L77.6256 46.4088C77.5129 46.6836 77.1518 46.8714 76.737 46.8714C76.1711 46.8705 75.8271 46.5419 75.8271 46.0417ZM77.6145 45.7242V45.5842L77.0597 45.6278C76.6508 45.6653 76.4946 45.8002 76.4946 46.0153C76.4946 46.2577 76.6559 46.3763 76.9521 46.3763C77.3558 46.3755 77.6145 46.1331 77.6145 45.7242Z" fill="#AAADAD"/>
<path d="M80.1921 45.471C80.1921 44.6362 80.7358 44.0601 81.5168 44.0601C82.314 44.0601 82.8193 44.5927 82.8193 45.4223V45.6212L80.8169 45.6263C80.8656 46.0949 81.1131 46.3313 81.5493 46.3313C81.9103 46.3313 82.1467 46.1914 82.2219 45.9387H82.8304C82.7178 46.52 82.233 46.8699 81.5382 46.8699C80.7469 46.8708 80.1921 46.2946 80.1921 45.471ZM80.8331 45.2072H82.1681C82.1681 44.8411 81.9154 44.5986 81.522 44.5986C81.1344 44.5986 80.898 44.8086 80.8331 45.2072Z" fill="#AAADAD"/>
<path d="M84.6707 44.8361C84.6707 43.6138 85.4406 42.8013 86.5928 42.8013C87.524 42.8013 88.2188 43.345 88.3537 44.19H87.6265C87.4916 43.7325 87.099 43.4636 86.5766 43.4636C85.8494 43.4636 85.3919 43.9911 85.3919 44.831C85.3919 45.6658 85.8545 46.2035 86.5766 46.2035C87.1092 46.2035 87.5189 45.9235 87.6478 45.4874H88.3639C88.2129 46.3162 87.4916 46.8658 86.5604 46.8658C85.4141 46.8658 84.6707 46.0686 84.6707 44.8361Z" fill="#AAADAD"/>
<path d="M88.8103 43.2099C88.8103 42.9888 88.9878 42.8164 89.214 42.8164C89.4291 42.8164 89.6075 42.9888 89.6075 43.2099C89.6075 43.431 89.43 43.6085 89.214 43.6085C88.9878 43.6085 88.8103 43.4301 88.8103 43.2099ZM88.8854 44.1411H89.5426V46.8007H88.8854V44.1411Z" fill="#AAADAD"/>
<path d="M90.0642 45.4711C90.0642 44.6363 90.6079 44.0602 91.3889 44.0602C92.1861 44.0602 92.6914 44.5928 92.6914 45.4225V45.6213L90.689 45.6265C90.7376 46.095 90.9852 46.3315 91.4213 46.3315C91.7824 46.3315 92.0188 46.1915 92.0939 45.9389H92.7025C92.5898 46.5201 92.105 46.8701 91.4102 46.8701C90.619 46.8709 90.0642 46.2948 90.0642 45.4711ZM90.5815 43.8238L91.0663 42.9839H91.7389L92.2237 43.8238H91.7124L91.4051 43.2912L91.0927 43.8238H90.5815ZM90.7052 45.2074H92.0402C92.0402 44.8412 91.7875 44.5988 91.394 44.5988C91.0065 44.5988 90.7701 44.8088 90.7052 45.2074Z" fill="#AAADAD"/>
<path d="M93.2188 46.8009V44.1413H93.8273L93.8811 44.4861C94.0484 44.2172 94.371 44.061 94.7321 44.061C95.3995 44.061 95.7444 44.4759 95.7444 45.1647V46.8018H95.0872V45.3209C95.0872 44.8736 94.8661 44.6585 94.5272 44.6585C94.1235 44.6585 93.876 44.9385 93.876 45.3695V46.8018H93.2188V46.8009Z" fill="#AAADAD"/>
<path d="M97.5632 44.0601C98.2904 44.0601 98.7855 44.4638 98.8555 45.1048H98.1983C98.1231 44.8035 97.9021 44.6473 97.5897 44.6473C97.1697 44.6473 96.8898 44.9648 96.8898 45.4658C96.8898 45.9669 97.1484 46.2793 97.5683 46.2793C97.897 46.2793 98.1283 46.118 98.1983 45.8269H98.8606C98.7795 46.4457 98.2631 46.8716 97.5683 46.8716C96.7609 46.8716 96.2334 46.3117 96.2334 45.4667C96.2334 44.6422 96.7771 44.0601 97.5632 44.0601Z" fill="#AAADAD"/>
<path d="M99.2747 43.2099C99.2747 42.9888 99.4522 42.8164 99.6784 42.8164C99.8935 42.8164 100.072 42.9888 100.072 43.2099C100.072 43.431 99.8943 43.6085 99.6784 43.6085C99.4522 43.6085 99.2747 43.4301 99.2747 43.2099ZM99.3498 44.1411H100.007V46.8007H99.3498V44.1411Z" fill="#AAADAD"/>
<path d="M100.567 46.0417C100.567 45.5518 100.922 45.2445 101.552 45.1967L102.349 45.1378V45.0789C102.349 44.7179 102.134 44.5728 101.8 44.5728C101.413 44.5728 101.198 44.7341 101.198 45.0141H100.638C100.638 44.4379 101.111 44.0615 101.833 44.0615C102.549 44.0615 102.99 44.449 102.99 45.1865V46.8014H102.414L102.365 46.4088C102.253 46.6836 101.892 46.8714 101.477 46.8714C100.911 46.8705 100.567 46.5419 100.567 46.0417ZM102.354 45.7242V45.5842L101.799 45.6278C101.391 45.6653 101.234 45.8002 101.234 46.0153C101.234 46.2577 101.396 46.3763 101.692 46.3763C102.096 46.3755 102.354 46.1331 102.354 45.7242Z" fill="#AAADAD"/>
<path d="M104.054 45.9931C104.06 46.2244 104.232 46.3704 104.533 46.3704C104.841 46.3704 105.007 46.2466 105.007 46.0528C105.007 45.918 104.937 45.8215 104.701 45.7678L104.222 45.6551C103.743 45.5475 103.511 45.3214 103.511 44.8963C103.511 44.3739 103.952 44.0615 104.566 44.0615C105.163 44.0615 105.567 44.4064 105.573 44.9227H104.948C104.943 44.6966 104.792 44.5515 104.539 44.5515C104.281 44.5515 104.13 44.6701 104.13 44.869C104.13 45.0201 104.249 45.1165 104.475 45.1703L104.954 45.2829C105.401 45.3854 105.627 45.5902 105.627 45.9991C105.627 46.5377 105.169 46.8714 104.512 46.8714C103.85 46.8714 103.43 46.5163 103.43 45.9939H104.054V45.9931Z" fill="#AAADAD"/>
</svg>
