<svg width="22" height="22" viewBox="0 0 22 22" fill="none" xmlns="http://www.w3.org/2000/svg">
<g clip-path="url(#clip0_1_4465)">
<path d="M21.0833 21.9994H0.916667C0.4125 21.9994 0 21.5869 0 21.0827C0 20.5786 0.4125 20.1661 0.916667 20.1661H21.0833C21.5875 20.1661 22 20.5786 22 21.0827C22 21.5869 21.5875 21.9994 21.0833 21.9994ZM13.5392 17.2877L19.36 11.1002C20.1575 10.3027 20.3867 9.16607 19.9558 8.13023C19.525 7.0944 18.5625 6.44357 17.435 6.4344H15.5833V2.74023C15.5925 1.2094 14.3367 -0.00976562 12.815 -0.00976562H9.16667C7.645 -0.00976562 6.41667 1.21857 6.41667 2.74023V6.4069H4.7025C3.63 6.4069 2.59417 6.96607 2.12667 7.92857C1.60417 9.01023 1.815 10.2294 2.62167 11.0452L8.3875 17.2786C9.09333 17.9844 10.0283 18.3419 10.9633 18.3419C11.8983 18.3419 12.8242 17.9844 13.5392 17.2786V17.2877Z" fill="black"/>
</g>
<defs>
<clipPath id="clip0_1_4465">
<rect width="22" height="22" fill="white"/>
</clipPath>
</defs>
</svg>
